<svg width="25" height="31" viewBox="0 0 25 31" fill="none" xmlns="http://www.w3.org/2000/svg">
<path d="M23.555 21.65C22.2923 19.9547 20.4894 18.7404 18.4437 18.2075L18.38 18.1938L16.9062 20.6812C16.9053 21.0125 16.7732 21.3298 16.539 21.564C16.3048 21.7982 15.9875 21.9303 15.6562 21.9312C14.9687 21.9312 14.4062 21.3688 13.75 19.7138V19.6737C13.75 19.2593 13.5854 18.8619 13.2924 18.5689C12.9993 18.2759 12.6019 18.1112 12.1875 18.1112C11.7731 18.1112 11.3757 18.2759 11.0826 18.5689C10.7896 18.8619 10.625 19.2593 10.625 19.6737V19.715V19.7125C9.925 21.3688 9.3575 21.93 8.67125 21.93C8.34003 21.929 8.02267 21.797 7.78846 21.5628C7.55425 21.3286 7.42224 21.0112 7.42125 20.68L5.99375 18.1875C3.93405 18.7114 2.11469 19.9222 0.83625 21.62L0.81875 21.6438C0.311999 22.4725 0.0298229 23.419 0 24.39V24.3987C0.00625 24.5862 0 24.805 0 25.0237V27.5237C0 28.1868 0.263392 28.8227 0.732233 29.2915C1.20107 29.7604 1.83696 30.0237 2.5 30.0237H21.875C22.538 30.0237 23.1739 29.7604 23.6428 29.2915C24.1116 28.8227 24.375 28.1868 24.375 27.5237V25.0237C24.375 24.8062 24.3687 24.5862 24.375 24.3987C24.3435 23.4167 24.0566 22.4598 23.5425 21.6225L23.5563 21.6475L23.555 21.65ZM5.62375 6.64375C5.62375 10.2937 7.89875 15.6563 12.1862 15.6563C16.3988 15.6563 18.7487 10.2937 18.7487 6.64375V6.5625C18.7487 5.7007 18.579 4.84734 18.2492 4.05114C17.9194 3.25494 17.436 2.5315 16.8266 1.92211C16.2173 1.31273 15.4938 0.829337 14.6976 0.499541C13.9014 0.169744 13.048 0 12.1862 0C11.3244 0 10.4711 0.169744 9.67489 0.499541C8.87869 0.829337 8.15525 1.31273 7.54586 1.92211C6.93648 2.5315 6.45309 3.25494 6.12329 4.05114C5.79349 4.84734 5.62375 5.7007 5.62375 6.5625V6.6475V6.64375Z" fill="#F5F8FF"/>
</svg>
